<svg width="559" height="184" viewBox="0 0 559 184" fill="none" xmlns="http://www.w3.org/2000/svg">
<path d="M6.17557 182.323L105.332 109.441C106.053 108.911 107.038 108.925 107.744 109.474L157.336 148.022C157.799 148.383 158.398 148.521 158.973 148.401L261.855 126.882C262.344 126.78 262.776 126.499 263.068 126.095L316.557 51.9623C317.318 50.9072 318.868 50.8484 319.707 51.8428L379.652 122.885C380.044 123.35 380.625 123.611 381.233 123.595L481.473 120.951C482.13 120.933 482.736 120.594 483.095 120.044L559.311 3.17958" stroke="url(#paint0_linear_1_762)" stroke-width="3" stroke-linecap="round" stroke-linejoin="round"/>
<path d="M6.17557 182.323L56.9771 99.4588C57.7335 98.225 59.5093 98.1782 60.3297 99.3704L113.924 177.254C114.678 178.349 116.271 178.417 117.116 177.39L169.532 113.675C169.679 113.497 169.855 113.345 170.053 113.227L253.649 63.3831C254.576 62.8307 255.773 63.1124 256.356 64.0198L325.321 171.355C326.09 172.551 327.826 172.585 328.642 171.421L390.115 83.6404C390.314 83.3563 390.584 83.1289 390.897 82.9803L559.311 3.17958" stroke="url(#paint1_linear_1_762)" stroke-width="3" stroke-linecap="round" stroke-linejoin="round"/>
<path d="M2.37207 12.3639L104.958 9.65799C105.724 9.63779 106.434 10.0569 106.786 10.7372L187.726 166.944C188.604 168.639 191.131 168.257 191.47 166.378L212.356 50.4517C212.453 49.9169 212.763 49.4444 213.215 49.1428L277.84 6.0183C278.665 5.46779 279.768 5.60503 280.433 6.34079L422.4 163.402C423.434 164.546 425.318 164.139 425.789 162.671L463.861 43.7694C464.024 43.2628 464.381 42.8418 464.854 42.5993L552.181 -2.13851" stroke="url(#paint2_linear_1_762)" stroke-width="3" stroke-linecap="round" stroke-linejoin="round"/>
<defs>
<linearGradient id="paint0_linear_1_762" x1="560.395" y1="44.2885" x2="111.765" y2="45.6229" gradientUnits="userSpaceOnUse">
<stop stop-color="#E323FF"/>
<stop offset="1" stop-color="#7517F8"/>
</linearGradient>
<linearGradient id="paint1_linear_1_762" x1="558.668" y1="-21.1811" x2="21.5201" y2="-7.0126" gradientUnits="userSpaceOnUse">
<stop stop-color="#4DFFDF"/>
<stop offset="1" stop-color="#4DA1FF"/>
</linearGradient>
<linearGradient id="paint2_linear_1_762" x1="553.267" y1="39.0213" x2="17.2086" y2="54.6923" gradientUnits="userSpaceOnUse">
<stop stop-color="#7517F8"/>
<stop offset="0.927083" stop-color="#E323FF"/>
</linearGradient>
</defs>
</svg>
